<svg xmlns="http://www.w3.org/2000/svg" viewBox="0 0 512 512" width="512" height="512">
<polygon points="152,20 360,20 492,152 492,360 360,492 152,492 20,360 20,152" fill="#4fc3f7"/>
<g transform="translate(256 256) scale(0.3009) translate(-317.63 352.29) rotate(180 317.63 -352.29)"><path d="M104.49 0L12.21 0L274.41-704.59L339.36-704.59L339.36-599.12L316.89-599.12L104.49 0M503.42-201.66L132.32-201.66L161.62-276.37L474.12-276.37L503.42-201.66M623.05 0L530.76 0L318.85-599.12L318.85-704.59L361.33-704.59" fill="#0d1620"/></g>
</svg>
