<svg xmlns="http://www.w3.org/2000/svg" viewBox="24.2 72.7 1143.4 253.6" width="572" height="127" role="img" aria-label="Catalyzer — EXVS2IB Analytics">
  <path d="M112.56 242.34Q93.03 242.34 78.53 233.36Q64.02 224.38 56.11 208.02Q48.20 191.66 48.20 169.49L48.20 169.39Q48.20 147.23 56.11 130.92Q64.02 114.61 78.48 105.67Q92.93 96.74 112.56 96.74Q127.21 96.74 139.22 102.30Q151.23 107.87 159.29 117.83Q167.34 127.79 169.98 141.17L170.18 142.15L152.40 142.15L151.72 140Q148.98 131.41 143.56 125.40Q138.14 119.39 130.33 116.17Q122.52 112.95 112.56 112.95Q98.50 112.95 88.10 119.93Q77.70 126.91 71.98 139.56Q66.27 152.21 66.27 169.39L66.27 169.49Q66.27 186.58 71.98 199.33Q77.70 212.07 88.14 219.10Q98.59 226.13 112.56 226.13Q122.42 226.13 130.19 222.91Q137.95 219.69 143.52 213.39Q149.08 207.09 152.11 197.81L152.40 196.93L170.18 196.93L169.98 197.91Q167.34 211.39 159.34 221.40Q151.33 231.41 139.32 236.88Q127.30 242.34 112.56 242.34" fill="#f5f5f7"/>
  <path d="M201.11 240L182.65 240L235.09 99.08L248.08 99.08L248.08 120.18L243.59 120.18L201.11 240M280.89 199.67L206.67 199.67L212.53 184.73L275.03 184.73L280.89 199.67M304.82 240L286.36 240L243.98 120.18L243.98 99.08L252.47 99.08" fill="#4fc3f7" transform="rotate(180 243.73 169.54)"/>
  <path d="M377.15 240L359.57 240L359.57 114.90L315.14 114.90L315.14 99.08L421.59 99.08L421.59 114.90L377.15 114.90" fill="#f5f5f7"/>
  <path d="M450.37 240L431.91 240L481.91 99.08L499.29 99.08L549.29 240L530.84 240L490.89 121.45L490.31 121.45" fill="#4fc3f7"/>
  <path d="M653.95 240L568.41 240L568.41 99.08L585.98 99.08L585.98 224.18L653.95 224.18" fill="#f5f5f7"/>
  <path d="M732.64 240L715.06 240L715.06 179.36L665.06 99.08L685.08 99.08L723.55 162.36L724.14 162.36L762.62 99.08L782.64 99.08L732.64 179.36" fill="#f5f5f7"/>
  <path d="M901.85 240L797.65 240L797.65 227.50L878.21 115.29L878.21 114.90L800.38 114.90L800.38 99.08L900.19 99.08L900.19 111.58L820.01 223.79L820.01 224.18L901.85 224.18" fill="#f5f5f7"/>
  <path d="M1015.39 240L928.09 240L928.09 99.08L1015.39 99.08L1015.39 114.90L945.67 114.90L945.67 160.12L1011.78 160.12L1011.78 175.74L945.67 175.74L945.67 224.18L1015.39 224.18" fill="#f5f5f7"/>
  <path d="M1059.12 240L1041.54 240L1041.54 99.08L1094.37 99.08Q1107.95 99.08 1118.05 104.31Q1128.16 109.53 1133.73 118.96Q1139.29 128.38 1139.29 141.07L1139.29 141.27Q1139.29 155.92 1131.72 166.61Q1124.16 177.30 1110.97 181.50L1143.59 240L1122.98 240L1092.81 184.24Q1092.52 184.24 1092.27 184.24Q1092.03 184.24 1091.73 184.24L1059.12 184.24L1059.12 240M1059.12 114.71L1059.12 168.71L1092.81 168.71Q1106.38 168.71 1113.76 161.68Q1121.13 154.65 1121.13 141.66L1121.13 141.46Q1121.13 128.87 1113.37 121.79Q1105.60 114.71 1092.03 114.71" fill="#f5f5f7"/>
  <path d="M225.61 302L212.51 302L212.51 280.86L225.61 280.86L225.61 283.24L215.15 283.24L215.15 290.02L225.06 290.02L225.06 292.36L215.15 292.36L215.15 299.63L225.61 299.63" fill="#8aa0b3"/>
  <path d="M261.54 302L258.55 302L266.38 290.46L265.75 292.49L265.75 291.32L258.64 280.86L261.81 280.86L267.47 289.37L268.67 289.37L266.93 290.31L273.27 280.86L276.27 280.86L268.96 291.45L268.96 292.63L268.33 290.59L276.11 302L272.95 302L267.32 293.56L266.12 293.56L267.86 292.64" fill="#8aa0b3"/>
  <path d="M318.56 302L315.95 302L308.16 280.86L310.93 280.86L317.23 298.84L317.28 298.84L323.58 280.86L326.35 280.86" fill="#8aa0b3"/>
  <path d="M366.54 302.35Q364.26 302.35 362.52 301.64Q360.79 300.93 359.77 299.61Q358.75 298.29 358.62 296.49L358.60 296.29L361.24 296.29L361.27 296.49Q361.43 297.55 362.13 298.32Q362.84 299.08 364 299.50Q365.17 299.92 366.69 299.92Q368.21 299.92 369.33 299.49Q370.44 299.06 371.05 298.25Q371.66 297.44 371.66 296.36L371.66 296.35Q371.66 294.95 370.69 294.12Q369.72 293.28 367.54 292.80L365.20 292.29Q363.13 291.83 361.79 291.05Q360.45 290.27 359.79 289.12Q359.13 287.97 359.13 286.43L359.13 286.41Q359.15 284.67 360.10 283.35Q361.05 282.02 362.73 281.27Q364.40 280.51 366.57 280.51Q368.64 280.51 370.26 281.25Q371.89 281.99 372.86 283.31Q373.84 284.63 373.95 286.36L373.97 286.58L371.33 286.58L371.30 286.37Q371.14 285.29 370.51 284.52Q369.88 283.76 368.86 283.35Q367.85 282.94 366.50 282.94Q365.09 282.94 364.04 283.37Q362.98 283.79 362.40 284.55Q361.83 285.32 361.83 286.34L361.83 286.36Q361.83 287.22 362.26 287.88Q362.69 288.54 363.58 289Q364.48 289.46 365.85 289.77L368.20 290.28Q370.37 290.75 371.72 291.53Q373.08 292.30 373.71 293.45Q374.35 294.60 374.35 296.21L374.35 296.23Q374.35 298.10 373.41 299.48Q372.46 300.86 370.71 301.60Q368.96 302.35 366.54 302.35" fill="#8aa0b3"/>
  <path d="M421.90 302L407.95 302L407.95 300.18L415.39 292.42Q416.83 290.93 417.58 289.95Q418.34 288.98 418.62 288.20Q418.91 287.42 418.91 286.55L418.91 286.52Q418.91 285.43 418.40 284.60Q417.90 283.76 417.01 283.29Q416.12 282.81 414.97 282.81Q413.65 282.81 412.61 283.36Q411.57 283.91 410.97 284.83Q410.37 285.75 410.37 286.90L410.37 286.97L407.82 286.97L407.82 286.88Q407.82 285.05 408.77 283.61Q409.72 282.17 411.34 281.34Q412.96 280.51 414.92 280.51Q416.84 280.51 418.34 281.29Q419.83 282.06 420.69 283.40Q421.54 284.73 421.54 286.38L421.54 286.41Q421.54 287.57 421.11 288.66Q420.68 289.74 419.61 291.09Q418.54 292.45 416.59 294.44L410.79 300.39L411.57 298.76L411.57 300.39L410.79 299.66L421.90 299.66" fill="#8aa0b3"/>
  <path d="M458.76 302L456.13 302L456.13 280.86L458.76 280.86" fill="#8aa0b3"/>
  <path d="M501.71 302L495.04 302L495.04 299.67L501.31 299.67Q503.68 299.67 504.92 298.73Q506.16 297.78 506.16 295.96L506.16 295.94Q506.16 294.71 505.59 293.88Q505.02 293.06 503.88 292.65Q502.75 292.24 501.06 292.24L495.04 292.24L495.04 289.97L500.32 289.97Q502.66 289.97 503.90 289.07Q505.13 288.16 505.13 286.44L505.13 286.41Q505.13 284.85 504.09 284.02Q503.05 283.19 501.14 283.19L495.04 283.19L495.04 280.86L501.74 280.86Q503.55 280.86 504.92 281.52Q506.28 282.18 507.04 283.37Q507.80 284.55 507.80 286.14L507.80 286.17Q507.80 287.26 507.30 288.26Q506.80 289.26 505.94 289.94Q505.08 290.62 503.98 290.78L503.98 290.84Q505.50 291.01 506.60 291.72Q507.70 292.42 508.28 293.53Q508.87 294.63 508.87 296.04L508.87 296.07Q508.87 297.93 508.01 299.25Q507.16 300.58 505.56 301.29Q503.96 302 501.71 302M496.36 302L493.72 302L493.72 280.86L496.36 280.86" fill="#8aa0b3"/>
  <path d="M580.82 302L578.05 302L585.91 280.86L587.86 280.86L587.86 284.03L587.19 284.03L580.82 302M592.78 295.95L581.65 295.95L582.53 293.71L591.90 293.71L592.78 295.95M596.37 302L593.60 302L587.25 284.03L587.25 280.86L588.52 280.86" fill="#8aa0b3"/>
  <path d="M632.26 302L629.65 302L629.65 280.86L632.21 280.86L646.09 300.77L642.75 297.55L643.92 297.55L643.92 280.86L646.53 280.86L646.53 302L643.96 302L630.09 282.09L633.43 285.32L632.26 285.32" fill="#8aa0b3"/>
  <path d="M682.57 302L679.80 302L687.67 280.86L689.62 280.86L689.62 284.03L688.94 284.03L682.57 302M694.54 295.95L683.41 295.95L684.28 293.71L693.66 293.71L694.54 295.95M698.13 302L695.36 302L689 284.03L689 280.86L690.28 280.86" fill="#8aa0b3"/>
  <path d="M744.24 302L731.41 302L731.41 280.86L734.04 280.86L734.04 299.63L744.24 299.63" fill="#8aa0b3"/>
  <path d="M786.45 302L783.81 302L783.81 292.90L776.31 280.86L779.32 280.86L785.09 290.35L785.18 290.35L790.95 280.86L793.95 280.86L786.45 292.90" fill="#8aa0b3"/>
  <path d="M835.21 302L832.57 302L832.57 283.24L825.91 283.24L825.91 280.86L841.88 280.86L841.88 283.24L835.21 283.24" fill="#8aa0b3"/>
  <path d="M878.16 302L875.52 302L875.52 280.86L878.16 280.86" fill="#8aa0b3"/>
  <path d="M921.95 302.35Q919.02 302.35 916.85 301Q914.67 299.66 913.48 297.20Q912.30 294.75 912.30 291.42L912.30 291.41Q912.30 288.08 913.48 285.64Q914.67 283.19 916.84 281.85Q919.01 280.51 921.95 280.51Q924.15 280.51 925.95 281.35Q927.75 282.18 928.96 283.67Q930.17 285.17 930.56 287.18L930.59 287.32L927.93 287.32L927.83 287Q927.42 285.71 926.60 284.81Q925.79 283.91 924.62 283.43Q923.45 282.94 921.95 282.94Q919.84 282.94 918.28 283.99Q916.72 285.04 915.87 286.93Q915.01 288.83 915.01 291.41L915.01 291.42Q915.01 293.99 915.87 295.90Q916.72 297.81 918.29 298.87Q919.86 299.92 921.95 299.92Q923.43 299.92 924.60 299.44Q925.76 298.95 926.60 298.01Q927.43 297.06 927.88 295.67L927.93 295.54L930.59 295.54L930.56 295.69Q930.17 297.71 928.97 299.21Q927.77 300.71 925.97 301.53Q924.16 302.35 921.95 302.35" fill="#8aa0b3"/>
  <path d="M971.47 302.35Q969.19 302.35 967.45 301.64Q965.72 300.93 964.70 299.61Q963.68 298.29 963.55 296.49L963.53 296.29L966.17 296.29L966.20 296.49Q966.36 297.55 967.07 298.32Q967.77 299.08 968.93 299.50Q970.10 299.92 971.62 299.92Q973.14 299.92 974.26 299.49Q975.37 299.06 975.98 298.25Q976.59 297.44 976.59 296.36L976.59 296.35Q976.59 294.95 975.62 294.12Q974.65 293.28 972.47 292.80L970.13 292.29Q968.06 291.83 966.72 291.05Q965.38 290.27 964.72 289.12Q964.06 287.97 964.06 286.43L964.06 286.41Q964.08 284.67 965.03 283.35Q965.98 282.02 967.66 281.27Q969.34 280.51 971.50 280.51Q973.57 280.51 975.19 281.25Q976.82 281.99 977.80 283.31Q978.77 284.63 978.89 286.36L978.90 286.58L976.26 286.58L976.23 286.37Q976.07 285.29 975.44 284.52Q974.81 283.76 973.80 283.35Q972.78 282.94 971.43 282.94Q970.02 282.94 968.97 283.37Q967.91 283.79 967.34 284.55Q966.76 285.32 966.76 286.34L966.76 286.36Q966.76 287.22 967.19 287.88Q967.62 288.54 968.52 289Q969.41 289.46 970.79 289.77L973.13 290.28Q975.30 290.75 976.65 291.53Q978.01 292.30 978.64 293.45Q979.28 294.60 979.28 296.21L979.28 296.23Q979.28 298.10 978.34 299.48Q977.39 300.86 975.64 301.60Q973.89 302.35 971.47 302.35" fill="#8aa0b3"/>
</svg>
